<svg width="158" height="29" viewBox="0 0 158 29" fill="none" xmlns="http://www.w3.org/2000/svg">
<mask id="mask0_1_246" style="mask-type:alpha" maskUnits="userSpaceOnUse" x="4" y="0" width="150" height="23">
<path d="M4 17.6205H11.5283C15.486 17.6205 17.5939 15.5556 17.5939 12.7507C17.5939 10.1438 15.7269 8.56932 13.7222 8.47468V8.30261C15.5548 7.88963 16.9056 6.59046 16.9056 4.51696C16.9056 1.87561 14.944 0 11.0551 0H4V17.6205ZM7.72542 14.5747V9.8943H10.8486C12.6382 9.8943 13.748 10.9267 13.748 12.3808C13.748 13.7058 12.8446 14.5747 10.7625 14.5747H7.72542ZM7.72542 7.37341V3.01131H10.5561C12.208 3.01131 13.1458 3.86308 13.1458 5.13643C13.1458 6.53024 12.0101 7.37341 10.4872 7.37341H7.72542Z" fill="#333333"/>
<path d="M28.4239 11.9936C28.4325 13.766 27.2193 14.6952 25.903 14.6952C24.5178 14.6952 23.623 13.723 23.6144 12.1657V4.40511H19.9492V12.8196C19.9578 15.9083 21.7646 17.7925 24.4231 17.7925C26.4106 17.7925 27.8388 16.7687 28.4325 15.22H28.5701V17.6205H32.0891V4.40511H28.4239V11.9936Z" fill="#333333"/>
<path d="M35.0208 17.6205H38.686V10.1438C38.686 8.5177 39.8733 7.39922 41.4908 7.39922C41.9984 7.39922 42.6953 7.48525 43.0395 7.5971V4.34489C42.7125 4.26746 42.2565 4.21583 41.8866 4.21583C40.4067 4.21583 39.1936 5.07621 38.7118 6.71092H38.5741V4.40511H35.0208V17.6205Z" fill="#333333"/>
<path d="M50.2731 22.8515C54.0501 22.8515 56.7345 21.1308 56.7345 17.7495V4.40511H53.0951V6.62488H52.9574C52.467 5.54941 51.3915 4.23304 49.1804 4.23304C46.2809 4.23304 43.8289 6.48722 43.8289 10.987C43.8289 15.3835 46.2121 17.4312 49.189 17.4312C51.2969 17.4312 52.4756 16.3729 52.9574 15.2802H53.1123V17.6979C53.1123 19.5133 51.9508 20.2188 50.3591 20.2188C48.7416 20.2188 47.9242 19.5133 47.6231 18.7131L44.2332 19.1691C44.672 21.2512 46.7111 22.8515 50.2731 22.8515ZM50.3505 14.678C48.5523 14.678 47.5715 13.2498 47.5715 10.9698C47.5715 8.72419 48.5351 7.14971 50.3505 7.14971C52.1315 7.14971 53.1295 8.65536 53.1295 10.9698C53.1295 13.3014 52.1143 14.678 50.3505 14.678Z" fill="#333333"/>
<path d="M68.1258 11.9936C68.1344 13.766 66.9213 14.6952 65.6049 14.6952C64.2197 14.6952 63.3249 13.723 63.3163 12.1657V4.40511H59.6511V12.8196C59.6597 15.9083 61.4665 17.7925 64.1251 17.7925C66.1125 17.7925 67.5408 16.7687 68.1344 15.22H68.2721V17.6205H71.791V4.40511H68.1258V11.9936Z" fill="#333333"/>
<path d="M80.7454 17.8786C84.0148 17.8786 86.2173 16.2869 86.7336 13.8348L83.3437 13.6111C82.9737 14.6178 82.0273 15.1426 80.8056 15.1426C78.973 15.1426 77.8115 13.9295 77.8115 11.9592V11.9506H86.811V10.944C86.811 6.45281 84.0922 4.23304 80.5991 4.23304C76.7102 4.23304 74.1893 6.99484 74.1893 11.073C74.1893 15.263 76.6758 17.8786 80.7454 17.8786ZM77.8115 9.67921C77.8889 8.17355 79.0332 6.96903 80.6593 6.96903C82.251 6.96903 83.3523 8.10472 83.3609 9.67921H77.8115Z" fill="#333333"/>
<path d="M89.2028 17.6205H92.868V10.1438C92.868 8.5177 94.0553 7.39922 95.6728 7.39922C96.1805 7.39922 96.8774 7.48525 97.2215 7.5971V4.34489C96.8946 4.26746 96.4386 4.21583 96.0686 4.21583C94.5888 4.21583 93.3756 5.07621 92.8938 6.71092H92.7562V4.40511H89.2028V17.6205Z" fill="#333333"/>
<path d="M104.241 17.6205H106.626V14.4157L107.799 12.9841L110.888 17.6205H113.74L109.506 11.3927L113.69 6.34337H110.833L106.774 11.3156H106.626V6.34337H104.241V17.6205Z" fill="#333333"/>
<path d="M118.122 17.7857C120.214 17.7857 121.624 16.767 121.954 15.1976L119.785 15.0545C119.548 15.6987 118.942 16.0346 118.16 16.0346C116.987 16.0346 116.244 15.2582 116.244 13.9973V13.9917H122.004V13.3475C122.004 10.4732 120.264 9.05251 118.028 9.05251C115.539 9.05251 113.926 10.8201 113.926 13.4301C113.926 16.1117 115.517 17.7857 118.122 17.7857ZM116.244 12.5381C116.294 11.5744 117.026 10.8035 118.067 10.8035C119.085 10.8035 119.79 11.5304 119.796 12.5381H116.244Z" fill="#333333"/>
<path d="M125.88 12.7308C125.886 11.6405 126.535 11.0018 127.483 11.0018C128.424 11.0018 128.991 11.6185 128.986 12.6537V17.6205H131.332V12.2352C131.332 10.2639 130.175 9.05251 128.413 9.05251C127.158 9.05251 126.249 9.66923 125.869 10.6549H125.77V9.16264H123.535V17.6205H125.88V12.7308Z" fill="#333333"/>
<path d="M133.136 17.6205H140.245V15.7483H136.214V15.6877L140.102 10.6879V9.16264H133.279V11.0348H137.277V11.0954L133.136 16.2218V17.6205Z" fill="#333333"/>
<path d="M142.039 17.6205H144.384V9.16264H142.039V17.6205ZM143.217 8.07237C143.916 8.07237 144.489 7.53825 144.489 6.88299C144.489 6.23324 143.916 5.69912 143.217 5.69912C142.523 5.69912 141.951 6.23324 141.951 6.88299C141.951 7.53825 142.523 8.07237 143.217 8.07237Z" fill="#333333"/>
<path d="M150.118 17.7857C152.21 17.7857 153.62 16.767 153.95 15.1976L151.781 15.0545C151.544 15.6987 150.938 16.0346 150.157 16.0346C148.984 16.0346 148.24 15.2582 148.24 13.9973V13.9917H154V13.3475C154 10.4732 152.26 9.05251 150.024 9.05251C147.536 9.05251 145.922 10.8201 145.922 13.4301C145.922 16.1117 147.513 17.7857 150.118 17.7857ZM148.24 12.5381C148.29 11.5744 149.022 10.8035 150.063 10.8035C151.082 10.8035 151.786 11.5304 151.792 12.5381H148.24Z" fill="#333333"/>
</mask>
<g mask="url(#mask0_1_246)">
<rect x="-1.8147" y="-8.72217" width="158.937" height="36.8268" fill="url(#paint0_linear_1_246)"/>
</g>
<defs>
<linearGradient id="paint0_linear_1_246" x1="97.7501" y1="28.3333" x2="101.083" y2="28.3333" gradientUnits="userSpaceOnUse">
<stop stop-color="#333333"/>
<stop offset="1" stop-color="#EB5757"/>
</linearGradient>
</defs>
</svg>
